<?xml version="1.0" encoding="utf-8"?>
<!-- Generator: Adobe Illustrator 22.1.0, SVG Export Plug-In . SVG Version: 6.00 Build 0)  -->
<svg version="1.1" id="Layer_1" xmlns="http://www.w3.org/2000/svg" xmlns:xlink="http://www.w3.org/1999/xlink" x="0px" y="0px"
	 viewBox="0 0 56 62" style="enable-background:new 0 0 56 62;" xml:space="preserve">
<style type="text/css">
	.st0{fill-rule:evenodd;clip-rule:evenodd;fill:#191919;fill:#fff;}
</style>
<path class="st0" d="M5.7,29.1l9.6-5.5l0,0l0,0l0,0l0,0l0,0h0l0,0l11.1-6.4V6.8l-9.7,5.6l0,0l0,0L5.7,18.7V29.1z M16.1,26.4l-10.4,6
	v12l11,6.4l0.1,0l9.7,5.6l0-10.4l-11.1-6.4c-0.7-0.4-0.9-1.3-0.5-1.9c0.4-0.7,1.3-0.9,1.9-0.5l11.1,6.4l9-5.2l-9.7-5.6L16.1,26.4z
	 M39.6,36.7l10.4-6v-12l-11-6.4l-0.1,0l-9.7-5.6v10.4l11.1,6.4c0.7,0.4,0.9,1.2,0.5,1.9c-0.4,0.7-1.2,0.9-1.9,0.5l-11.1-6.4l-9,5.2
	l9.7,5.6L39.6,36.7z M50,34l-9.7,5.6l0,0l0,0l0,0l0,0l0,0l0,0l0,0l0,0l0,0l0,0c-0.1,0-0.2,0.1-0.3,0.1c-0.1,0.1-0.2,0.2-0.3,0.3
	l-10.4,6l0,10.4l9.7-5.6l0,0l0,0L50,44.3V34z M28.6,3.1l11.7,6.8l0.1,0l11.7,6.8c0.5,0.3,0.7,0.7,0.7,1.2h0v13.6v13.6
	c0,0.6-0.3,1.1-0.8,1.3l-11.7,6.7l0,0L28.6,60c-0.3,0.2-0.6,0.2-1,0.2l0,0c-0.2,0-0.3-0.1-0.4-0.2l-11.8-6.8l-0.1,0L3.6,46.4
	c-0.5-0.3-0.7-0.7-0.7-1.2h0V31.5V17.9c0-0.6,0.3-1.1,0.8-1.3l11.7-6.7l0,0L27,3.1c0.2-0.2,0.5-0.2,0.8-0.2
	C28.1,2.9,28.4,3,28.6,3.1z"/>
</svg>
